<?xml version="1.0" standalone="no"?>
<!DOCTYPE svg PUBLIC "-//W3C//DTD SVG 20010904//EN"
 "http://www.w3.org/TR/2001/REC-SVG-20010904/DTD/svg10.dtd">
<svg version="1.0" xmlns="http://www.w3.org/2000/svg"
 width="512.000000pt" height="512.000000pt" viewBox="0 0 512.000000 512.000000"
 preserveAspectRatio="xMidYMid meet">

<g transform="translate(0.000000,512.000000) scale(0.100000,-0.100000)"
fill="#000000" stroke="none">
<path d="M540 2560 l0 -1395 2020 0 2020 0 0 1395 0 1395 -2020 0 -2020 0 0
-1395z m1316 -50 c-161 -174 -1271 -1284 -1229 -1230 92 120 1045 1325 1065
1346 l19 22 -507 563 c-279 310 -523 582 -542 604 -20 22 252 -250 605 -605
l641 -645 -52 -55z m2607 1308 c-120 -128 -1053 -1170 -1053 -1178 0 -5 239
-307 532 -672 292 -365 547 -683 566 -708 20 -25 -269 259 -641 630 l-677 675
72 72 c39 40 75 70 79 67 4 -2 263 255 575 571 312 316 570 575 573 575 3 0
-9 -15 -26 -32z m-2368 -1441 c94 -96 189 -186 212 -200 148 -93 356 -90 513
7 25 15 117 102 205 192 88 90 164 164 169 164 15 0 56 -42 56 -57 0 -15 -351
-406 -407 -452 -158 -132 -413 -137 -557 -10 -33 29 -377 403 -415 452 -12 16
-11 21 14 47 16 17 31 30 34 30 3 0 83 -78 176 -173z"/>
<path d="M3265 2628 l-70 -73 73 70 c67 64 77 75 69 75 -1 0 -34 -33 -72 -72z"/>
</g>
</svg>
