<?xml version="1.0" standalone="no"?>
<!DOCTYPE svg PUBLIC "-//W3C//DTD SVG 20010904//EN"
 "http://www.w3.org/TR/2001/REC-SVG-20010904/DTD/svg10.dtd">
<svg version="1.0" xmlns="http://www.w3.org/2000/svg"
 width="512.000000pt" height="512.000000pt" viewBox="0 0 512.000000 512.000000"
 preserveAspectRatio="xMidYMid meet">

<g transform="translate(0.000000,512.000000) scale(0.100000,-0.100000)"
fill="#000000" stroke="none">
<path d="M2410 5110 c-296 -37 -567 -173 -771 -387 -167 -175 -268 -361 -326
-603 -25 -102 -26 -118 -30 -512 l-5 -408 -99 0 c-55 0 -131 -7 -169 -16 -166
-38 -308 -176 -352 -343 -15 -61 -17 -162 -17 -1241 0 -1079 2 -1180 17 -1241
45 -172 193 -311 370 -348 70 -15 2935 -15 3037 -1 210 30 375 195 405 405 13
95 13 2275 0 2370 -14 98 -66 202 -134 271 -99 98 -229 143 -417 144 l-77 0
-5 398 c-4 357 -7 407 -26 494 -112 512 -498 897 -999 997 -113 23 -309 33
-402 21z m336 -435 c352 -79 614 -366 663 -728 6 -43 11 -229 11 -413 l0 -334
-855 0 -855 0 0 378 c0 342 2 385 20 460 61 253 237 468 473 577 169 78 365
100 543 60z m-83 -2340 c81 -21 132 -50 194 -107 122 -117 164 -301 103 -461
-25 -68 -86 -148 -140 -185 l-39 -27 -1 -251 c0 -289 -7 -327 -67 -386 -93
-91 -221 -90 -311 3 -55 56 -62 101 -62 383 l-1 251 -39 27 c-54 37 -114 117
-141 185 -58 154 -24 324 89 445 108 116 265 162 415 123z"/>
</g>
</svg>
