<?xml version="1.0" standalone="no"?>
<!DOCTYPE svg PUBLIC "-//W3C//DTD SVG 20010904//EN"
 "http://www.w3.org/TR/2001/REC-SVG-20010904/DTD/svg10.dtd">
<svg version="1.0" xmlns="http://www.w3.org/2000/svg"
 width="512.000000pt" height="512.000000pt" viewBox="0 0 512.000000 512.000000"
 preserveAspectRatio="xMidYMid meet">

<g transform="translate(0.000000,512.000000) scale(0.100000,-0.100000)"
fill="#000000" stroke="none">
<path d="M1315 4404 c-441 -94 -810 -544 -966 -1179 -56 -231 -72 -373 -73
-655 0 -190 4 -287 17 -380 107 -766 475 -1317 976 -1463 64 -18 99 -22 221
-21 127 1 156 4 235 28 109 33 213 81 295 136 69 47 176 144 221 201 l31 39
-50 98 c-27 53 -62 127 -77 164 l-28 68 -36 -62 c-136 -231 -454 -399 -679
-359 -288 51 -557 357 -702 799 -33 102 -90 341 -90 380 0 6 30 -3 67 -20 129
-61 292 -47 413 34 269 179 236 587 -57 730 -64 31 -74 33 -178 33 -103 0
-114 -2 -177 -32 -38 -18 -68 -27 -68 -21 0 39 57 278 90 380 173 525 517 851
846 800 94 -15 211 -60 294 -114 85 -55 196 -168 241 -246 l36 -62 28 68 c15
37 50 111 77 164 l50 98 -30 37 c-219 276 -606 425 -927 357z"/>
<path d="M3452 4405 c-185 -40 -358 -141 -511 -297 -253 -258 -439 -670 -506
-1121 -81 -553 0 -1126 222 -1566 233 -463 577 -720 966 -721 596 -1 1080 598
1204 1490 12 91 17 192 17 370 0 346 -34 568 -130 860 -175 533 -521 904 -916
984 -93 19 -260 20 -346 1z m296 -310 c369 -87 683 -582 768 -1210 23 -175 23
-475 0 -650 -95 -705 -473 -1224 -891 -1225 -348 -1 -688 383 -830 937 -25 98
-56 255 -50 261 1 2 18 -6 36 -17 107 -62 266 -68 382 -13 171 79 271 267 240
448 -24 139 -105 249 -229 311 -64 31 -88 37 -158 41 -89 5 -172 -13 -235 -49
-18 -11 -35 -19 -36 -17 -2 2 3 39 11 83 72 416 270 800 501 975 162 123 325
164 491 125z"/>
</g>
</svg>
