<?xml version="1.0" standalone="no"?>
<!DOCTYPE svg PUBLIC "-//W3C//DTD SVG 20010904//EN"
 "http://www.w3.org/TR/2001/REC-SVG-20010904/DTD/svg10.dtd">
<svg version="1.0" xmlns="http://www.w3.org/2000/svg"
 width="512.000000pt" height="512.000000pt" viewBox="0 0 512.000000 512.000000"
 preserveAspectRatio="xMidYMid meet">

<g transform="translate(0.000000,512.000000) scale(0.100000,-0.100000)"
fill="#000000" stroke="none">
<path d="M1315 4404 c-441 -94 -810 -544 -966 -1179 -56 -231 -72 -373 -73
-655 0 -355 32 -573 130 -870 166 -505 483 -863 858 -971 90 -26 277 -36 371
-20 539 94 962 698 1062 1515 21 173 21 499 0 672 -37 300 -115 567 -234 803
-171 341 -400 568 -677 671 -133 50 -328 64 -471 34z m300 -309 c310 -79 585
-436 710 -922 25 -98 56 -255 50 -261 -1 -2 -18 6 -36 17 -107 62 -266 68
-382 13 -171 -79 -271 -267 -240 -448 24 -139 114 -257 240 -316 116 -55 275
-49 382 13 18 11 35 19 36 17 2 -2 -3 -39 -11 -83 -71 -411 -260 -781 -491
-966 -282 -224 -589 -193 -854 88 -202 215 -349 557 -410 958 -31 198 -31 512
0 710 118 777 559 1294 1006 1180z"/>
<path d="M3470 4405 c-139 -30 -262 -82 -373 -157 -66 -45 -173 -143 -218
-199 l-31 -39 50 -98 c27 -53 62 -127 77 -164 l28 -68 36 62 c45 78 156 191
241 246 83 54 200 99 294 114 329 51 674 -276 846 -801 33 -101 90 -340 90
-379 0 -6 -30 3 -67 21 -64 30 -75 32 -178 32 -104 0 -114 -2 -178 -33 -126
-62 -215 -182 -238 -321 -28 -176 72 -362 238 -443 64 -31 74 -33 178 -33 103
0 114 2 178 32 37 18 67 27 67 21 0 -39 -57 -278 -90 -379 -172 -524 -518
-852 -846 -801 -94 15 -211 60 -294 114 -85 55 -196 168 -241 246 l-36 62 -28
-68 c-15 -37 -50 -111 -77 -164 l-50 -98 31 -39 c45 -57 152 -154 221 -201
203 -138 475 -199 690 -156 525 106 926 678 1037 1476 12 91 17 192 17 370 0
178 -5 279 -17 370 -124 889 -611 1494 -1199 1489 -51 0 -122 -7 -158 -14z"/>
</g>
</svg>
