<?xml version="1.0" standalone="no"?>
<!DOCTYPE svg PUBLIC "-//W3C//DTD SVG 20010904//EN"
 "http://www.w3.org/TR/2001/REC-SVG-20010904/DTD/svg10.dtd">
<svg version="1.0" xmlns="http://www.w3.org/2000/svg"
 width="512.000000pt" height="512.000000pt" viewBox="0 0 512.000000 512.000000"
 preserveAspectRatio="xMidYMid meet">

<g transform="translate(0.000000,512.000000) scale(0.100000,-0.100000)"
fill="#000000" stroke="none">
<path d="M1855 5106 c-16 -7 -40 -25 -53 -38 -13 -14 -83 -173 -157 -353 -74
-180 -135 -329 -137 -331 -2 -1 -163 19 -358 46 -391 55 -399 55 -457 -2 -58
-56 -58 -65 -3 -458 37 -266 46 -356 37 -362 -7 -4 -154 -65 -327 -135 -345
-139 -381 -161 -395 -236 -14 -73 -3 -92 225 -385 121 -155 220 -287 220 -292
0 -5 -99 -137 -220 -292 -227 -292 -239 -312 -226 -384 15 -76 44 -93 399
-238 181 -74 330 -136 332 -138 2 -2 -18 -163 -45 -358 -55 -391 -55 -399 2
-457 56 -58 65 -58 458 -3 195 27 356 47 358 45 2 -1 63 -151 137 -331 145
-357 162 -385 239 -400 72 -13 92 -2 384 226 156 121 287 220 293 220 5 0 130
-94 277 -209 147 -114 281 -215 299 -225 61 -31 138 -14 183 40 14 17 83 173
154 349 71 176 132 323 135 327 4 4 165 -14 359 -41 391 -54 401 -54 458 3 57
57 57 67 3 458 -26 194 -45 356 -41 359 4 3 151 64 327 135 350 140 386 162
400 237 14 73 3 92 -225 385 -121 155 -220 287 -220 292 0 5 94 130 208 277
115 148 216 282 225 300 32 61 15 138 -40 184 -16 14 -173 83 -349 154 -175
70 -322 131 -326 134 -4 4 14 165 41 359 54 391 54 401 -3 458 -57 57 -67 57
-458 4 -194 -27 -356 -46 -359 -42 -3 4 -64 151 -134 327 -141 350 -162 386
-238 400 -73 14 -92 3 -385 -225 -155 -121 -287 -220 -292 -220 -6 0 -130 94
-277 209 -148 114 -282 216 -300 225 -38 19 -87 20 -128 2z m1732 -1766 c46
-20 79 -64 89 -118 15 -77 15 -76 -693 -784 -725 -724 -687 -690 -780 -673
-33 5 -83 51 -390 358 -301 301 -353 358 -364 395 -34 116 77 227 194 193 35
-11 85 -56 320 -289 l277 -277 603 602 c402 402 610 603 627 606 51 9 76 6
117 -13z"/>
</g>
</svg>
